ply
format ascii 1.0
element vertex 348
property float32 x
property float32 y
property float32 z
element face 395
property list uint8 int32 vertex_indices
end_header
0.50000 0.00000 150.00000
0.46194 0.11481 150.00000
0.35355 0.21213 150.00000
0.19134 0.27716 150.00000
0.00000 0.30000 150.00000
-0.19134 0.27716 150.00000
-0.35355 0.21213 150.00000
-0.46194 0.11481 150.00000
-0.50000 0.00000 150.00000
-0.46194 -0.11481 150.00000
-0.35355 -0.21213 150.00000
-0.19134 -0.27716 150.00000
-0.00000 -0.30000 150.00000
0.19134 -0.27716 150.00000
0.35355 -0.21213 150.00000
0.46194 -0.11481 150.00000
3.00000 0.00000 120.00000
2.77164 0.95671 120.00000
2.12132 1.76777 120.00000
1.14805 2.30970 120.00000
0.00000 2.50000 120.00000
-1.14805 2.30970 120.00000
-2.12132 1.76777 120.00000
-2.77164 0.95671 120.00000
-3.00000 0.00000 120.00000
-2.77164 -0.95671 120.00000
-2.12132 -1.76777 120.00000
-1.14805 -2.30970 120.00000
-0.00000 -2.50000 120.00000
1.14805 -2.30970 120.00000
2.12132 -1.76777 120.00000
2.77164 -0.95671 120.00000
4.50000 0.00000 80.00000
4.15746 1.53073 80.00000
3.18198 2.82843 80.00000
1.72208 3.69552 80.00000
0.00000 4.00000 80.00000
-1.72208 3.69552 80.00000
-3.18198 2.82843 80.00000
-4.15746 1.53073 80.00000
-4.50000 0.00000 80.00000
-4.15746 -1.53073 80.00000
-3.18198 -2.82843 80.00000
-1.72208 -3.69552 80.00000
-0.00000 -4.00000 80.00000
1.72208 -3.69552 80.00000
3.18198 -2.82843 80.00000
4.15746 -1.53073 80.00000
6.00000 0.00000 30.00000
5.54328 1.72208 30.00000
4.24264 3.18198 30.00000
2.29610 4.15746 30.00000
0.00000 4.50000 30.00000
-2.29610 4.15746 30.00000
-4.24264 3.18198 30.00000
-5.54328 1.72208 30.00000
-6.00000 0.00000 30.00000
-5.54328 -1.72208 30.00000
-4.24264 -3.18198 30.00000
-2.29610 -4.15746 30.00000
-0.00000 -4.50000 30.00000
2.29610 -4.15746 30.00000
4.24264 -3.18198 30.00000
5.54328 -1.72208 30.00000
7.00000 0.00000 -30.00000
6.46716 1.83688 -30.00000
4.94975 3.39411 -30.00000
2.67878 4.43462 -30.00000
0.00000 4.80000 -30.00000
-2.67878 4.43462 -30.00000
-4.94975 3.39411 -30.00000
-6.46716 1.83688 -30.00000
-7.00000 0.00000 -30.00000
-6.46716 -1.83688 -30.00000
-4.94975 -3.39411 -30.00000
-2.67878 -4.43462 -30.00000
-0.00000 -4.80000 -30.00000
2.67878 -4.43462 -30.00000
4.94975 -3.39411 -30.00000
6.46716 -1.83688 -30.00000
7.00000 0.00000 -90.00000
6.46716 1.72208 -90.00000
4.94975 3.18198 -90.00000
2.67878 4.15746 -90.00000
0.00000 4.50000 -90.00000
-2.67878 4.15746 -90.00000
-4.94975 3.18198 -90.00000
-6.46716 1.72208 -90.00000
-7.00000 0.00000 -90.00000
-6.46716 -1.72208 -90.00000
-4.94975 -3.18198 -90.00000
-2.67878 -4.15746 -90.00000
-0.00000 -4.50000 -90.00000
2.67878 -4.15746 -90.00000
4.94975 -3.18198 -90.00000
6.46716 -1.72208 -90.00000
8.00000 0.00000 -140.00000
7.39104 1.53073 -140.00000
5.65685 2.82843 -140.00000
3.06147 3.69552 -140.00000
0.00000 4.00000 -140.00000
-3.06147 3.69552 -140.00000
-5.65685 2.82843 -140.00000
-7.39104 1.53073 -140.00000
-8.00000 0.00000 -140.00000
-7.39104 -1.53073 -140.00000
-5.65685 -2.82843 -140.00000
-3.06147 -3.69552 -140.00000
-0.00000 -4.00000 -140.00000
3.06147 -3.69552 -140.00000
5.65685 -2.82843 -140.00000
7.39104 -1.53073 -140.00000
7.50000 0.00000 -170.00000
6.92910 1.33939 -170.00000
5.30330 2.47487 -170.00000
2.87013 3.23358 -170.00000
0.00000 3.50000 -170.00000
-2.87013 3.23358 -170.00000
-5.30330 2.47487 -170.00000
-6.92910 1.33939 -170.00000
-7.50000 0.00000 -170.00000
-6.92910 -1.33939 -170.00000
-5.30330 -2.47487 -170.00000
-2.87013 -3.23358 -170.00000
-0.00000 -3.50000 -170.00000
2.87013 -3.23358 -170.00000
5.30330 -2.47487 -170.00000
6.92910 -1.33939 -170.00000
6.00000 0.00000 -195.00000
5.54328 0.95671 -195.00000
4.24264 1.76777 -195.00000
2.29610 2.30970 -195.00000
0.00000 2.50000 -195.00000
-2.29610 2.30970 -195.00000
-4.24264 1.76777 -195.00000
-5.54328 0.95671 -195.00000
-6.00000 0.00000 -195.00000
-5.54328 -0.95671 -195.00000
-4.24264 -1.76777 -195.00000
-2.29610 -2.30970 -195.00000
-0.00000 -2.50000 -195.00000
2.29610 -2.30970 -195.00000
4.24264 -1.76777 -195.00000
5.54328 -0.95671 -195.00000
2.00000 0.00000 -210.00000
1.84776 0.38268 -210.00000
1.41421 0.70711 -210.00000
0.76537 0.92388 -210.00000
0.00000 1.00000 -210.00000
-0.76537 0.92388 -210.00000
-1.41421 0.70711 -210.00000
-1.84776 0.38268 -210.00000
-2.00000 0.00000 -210.00000
-1.84776 -0.38268 -210.00000
-1.41421 -0.70711 -210.00000
-0.76537 -0.92388 -210.00000
-0.00000 -1.00000 -210.00000
0.76537 -0.92388 -210.00000
1.41421 -0.70711 -210.00000
1.84776 -0.38268 -210.00000
0.00000 0.00000 160.00000
0.00000 0.00000 -220.00000
2.50000 0.00000 130.00000
2.16506 0.75000 130.00000
1.25000 1.29904 130.00000
0.00000 1.50000 130.00000
-1.25000 1.29904 130.00000
-2.16506 0.75000 130.00000
-2.50000 0.00000 130.00000
-2.16506 -0.75000 130.00000
-1.25000 -1.29904 130.00000
-0.00000 -1.50000 130.00000
1.25000 -1.29904 130.00000
2.16506 -0.75000 130.00000
3.50000 1.50000 110.00000
3.03109 2.40000 110.00000
1.75000 3.05885 110.00000
0.00000 3.30000 110.00000
-1.75000 3.05885 110.00000
-3.03109 2.40000 110.00000
-3.50000 1.50000 110.00000
-3.03109 0.60000 110.00000
-1.75000 -0.05885 110.00000
-0.00000 -0.30000 110.00000
1.75000 -0.05885 110.00000
3.03109 0.60000 110.00000
3.00000 2.80000 80.00000
2.59808 3.55000 80.00000
1.50000 4.09904 80.00000
0.00000 4.30000 80.00000
-1.50000 4.09904 80.00000
-2.59808 3.55000 80.00000
-3.00000 2.80000 80.00000
-2.59808 2.05000 80.00000
-1.50000 1.50096 80.00000
-0.00000 1.30000 80.00000
1.50000 1.50096 80.00000
2.59808 2.05000 80.00000
1.50000 2.00000 60.00000
1.29904 2.40000 60.00000
0.75000 2.69282 60.00000
0.00000 2.80000 60.00000
-0.75000 2.69282 60.00000
-1.29904 2.40000 60.00000
-1.50000 2.00000 60.00000
-1.29904 1.60000 60.00000
-0.75000 1.30718 60.00000
-0.00000 1.20000 60.00000
0.75000 1.30718 60.00000
1.29904 1.60000 60.00000
0.00000 0.50000 120.00000
0.00000 0.00000 58.00000
7.00000 -0.20000 -20.00000
7.00000 -0.20000 -145.00000
55.00000 -0.20000 -180.00000
42.00000 -0.20000 -35.00000
7.00000 -1.80000 -20.00000
7.00000 -1.80000 -145.00000
55.00000 -1.80000 -180.00000
42.00000 -1.80000 -35.00000
-7.00000 -0.20000 -20.00000
-7.00000 -0.20000 -145.00000
-55.00000 -0.20000 -180.00000
-42.00000 -0.20000 -35.00000
-7.00000 -1.80000 -20.00000
-7.00000 -1.80000 -145.00000
-55.00000 -1.80000 -180.00000
-42.00000 -1.80000 -35.00000
8.00000 0.00000 -20.00000
7.70711 1.41421 -20.00000
7.00000 2.00000 -20.00000
6.29289 1.41421 -20.00000
6.00000 0.00000 -20.00000
6.29289 -1.41421 -20.00000
7.00000 -2.00000 -20.00000
7.70711 -1.41421 -20.00000
8.00000 0.00000 -145.00000
7.70711 1.06066 -145.00000
7.00000 1.50000 -145.00000
6.29289 1.06066 -145.00000
6.00000 0.00000 -145.00000
6.29289 -1.06066 -145.00000
7.00000 -1.50000 -145.00000
7.70711 -1.06066 -145.00000
7.00000 0.00000 -15.00000
7.00000 0.00000 -150.00000
-6.00000 0.00000 -20.00000
-6.29289 1.41421 -20.00000
-7.00000 2.00000 -20.00000
-7.70711 1.41421 -20.00000
-8.00000 0.00000 -20.00000
-7.70711 -1.41421 -20.00000
-7.00000 -2.00000 -20.00000
-6.29289 -1.41421 -20.00000
-6.00000 0.00000 -145.00000
-6.29289 1.06066 -145.00000
-7.00000 1.50000 -145.00000
-7.70711 1.06066 -145.00000
-8.00000 0.00000 -145.00000
-7.70711 -1.06066 -145.00000
-7.00000 -1.50000 -145.00000
-6.29289 -1.06066 -145.00000
-7.00000 0.00000 -15.00000
-7.00000 0.00000 -150.00000
16.50000 -3.50000 -120.00000
16.16506 -2.25000 -120.00000
15.25000 -1.33494 -120.00000
14.00000 -1.00000 -120.00000
12.75000 -1.33494 -120.00000
11.83494 -2.25000 -120.00000
11.50000 -3.50000 -120.00000
11.83494 -4.75000 -120.00000
12.75000 -5.66506 -120.00000
14.00000 -6.00000 -120.00000
15.25000 -5.66506 -120.00000
16.16506 -4.75000 -120.00000
16.75000 -3.50000 -140.00000
16.38157 -2.12500 -140.00000
15.37500 -1.11843 -140.00000
14.00000 -0.75000 -140.00000
12.62500 -1.11843 -140.00000
11.61843 -2.12500 -140.00000
11.25000 -3.50000 -140.00000
11.61843 -4.87500 -140.00000
12.62500 -5.88157 -140.00000
14.00000 -6.25000 -140.00000
15.37500 -5.88157 -140.00000
16.38157 -4.87500 -140.00000
16.25000 -3.50000 -210.00000
15.94856 -2.37500 -210.00000
15.12500 -1.55144 -210.00000
14.00000 -1.25000 -210.00000
12.87500 -1.55144 -210.00000
12.05144 -2.37500 -210.00000
11.75000 -3.50000 -210.00000
12.05144 -4.62500 -210.00000
12.87500 -5.44856 -210.00000
14.00000 -5.75000 -210.00000
15.12500 -5.44856 -210.00000
15.94856 -4.62500 -210.00000
14.00000 -3.50000 -117.00000
14.00000 -3.50000 -213.00000
-11.50000 -3.50000 -120.00000
-11.83494 -2.25000 -120.00000
-12.75000 -1.33494 -120.00000
-14.00000 -1.00000 -120.00000
-15.25000 -1.33494 -120.00000
-16.16506 -2.25000 -120.00000
-16.50000 -3.50000 -120.00000
-16.16506 -4.75000 -120.00000
-15.25000 -5.66506 -120.00000
-14.00000 -6.00000 -120.00000
-12.75000 -5.66506 -120.00000
-11.83494 -4.75000 -120.00000
-11.25000 -3.50000 -140.00000
-11.61843 -2.12500 -140.00000
-12.62500 -1.11843 -140.00000
-14.00000 -0.75000 -140.00000
-15.37500 -1.11843 -140.00000
-16.38157 -2.12500 -140.00000
-16.75000 -3.50000 -140.00000
-16.38157 -4.87500 -140.00000
-15.37500 -5.88157 -140.00000
-14.00000 -6.25000 -140.00000
-12.62500 -5.88157 -140.00000
-11.61843 -4.87500 -140.00000
-11.75000 -3.50000 -210.00000
-12.05144 -2.37500 -210.00000
-12.87500 -1.55144 -210.00000
-14.00000 -1.25000 -210.00000
-15.12500 -1.55144 -210.00000
-15.94856 -2.37500 -210.00000
-16.25000 -3.50000 -210.00000
-15.94856 -4.62500 -210.00000
-15.12500 -5.44856 -210.00000
-14.00000 -5.75000 -210.00000
-12.87500 -5.44856 -210.00000
-12.05144 -4.62500 -210.00000
-14.00000 -3.50000 -117.00000
-14.00000 -3.50000 -213.00000
0.50000 2.00000 -100.00000
0.50000 2.00000 -190.00000
0.50000 10.00000 -160.00000
0.50000 10.00000 -120.00000
-0.50000 2.00000 -100.00000
-0.50000 2.00000 -190.00000
-0.50000 10.00000 -160.00000
-0.50000 10.00000 -120.00000
4 0 1 17 16
4 1 2 18 17
4 2 3 19 18
4 3 4 20 19
4 4 5 21 20
4 5 6 22 21
4 6 7 23 22
4 7 8 24 23
4 8 9 25 24
4 9 10 26 25
4 10 11 27 26
4 11 12 28 27
4 12 13 29 28
4 13 14 30 29
4 14 15 31 30
4 15 0 16 31
4 16 17 33 32
4 17 18 34 33
4 18 19 35 34
4 19 20 36 35
4 20 21 37 36
4 21 22 38 37
4 22 23 39 38
4 23 24 40 39
4 24 25 41 40
4 25 26 42 41
4 26 27 43 42
4 27 28 44 43
4 28 29 45 44
4 29 30 46 45
4 30 31 47 46
4 31 16 32 47
4 32 33 49 48
4 33 34 50 49
4 34 35 51 50
4 35 36 52 51
4 36 37 53 52
4 37 38 54 53
4 38 39 55 54
4 39 40 56 55
4 40 41 57 56
4 41 42 58 57
4 42 43 59 58
4 43 44 60 59
4 44 45 61 60
4 45 46 62 61
4 46 47 63 62
4 47 32 48 63
4 48 49 65 64
4 49 50 66 65
4 50 51 67 66
4 51 52 68 67
4 52 53 69 68
4 53 54 70 69
4 54 55 71 70
4 55 56 72 71
4 56 57 73 72
4 57 58 74 73
4 58 59 75 74
4 59 60 76 75
4 60 61 77 76
4 61 62 78 77
4 62 63 79 78
4 63 48 64 79
4 64 65 81 80
4 65 66 82 81
4 66 67 83 82
4 67 68 84 83
4 68 69 85 84
4 69 70 86 85
4 70 71 87 86
4 71 72 88 87
4 72 73 89 88
4 73 74 90 89
4 74 75 91 90
4 75 76 92 91
4 76 77 93 92
4 77 78 94 93
4 78 79 95 94
4 79 64 80 95
4 80 81 97 96
4 81 82 98 97
4 82 83 99 98
4 83 84 100 99
4 84 85 101 100
4 85 86 102 101
4 86 87 103 102
4 87 88 104 103
4 88 89 105 104
4 89 90 106 105
4 90 91 107 106
4 91 92 108 107
4 92 93 109 108
4 93 94 110 109
4 94 95 111 110
4 95 80 96 111
4 96 97 113 112
4 97 98 114 113
4 98 99 115 114
4 99 100 116 115
4 100 101 117 116
4 101 102 118 117
4 102 103 119 118
4 103 104 120 119
4 104 105 121 120
4 105 106 122 121
4 106 107 123 122
4 107 108 124 123
4 108 109 125 124
4 109 110 126 125
4 110 111 127 126
4 111 96 112 127
4 112 113 129 128
4 113 114 130 129
4 114 115 131 130
4 115 116 132 131
4 116 117 133 132
4 117 118 134 133
4 118 119 135 134
4 119 120 136 135
4 120 121 137 136
4 121 122 138 137
4 122 123 139 138
4 123 124 140 139
4 124 125 141 140
4 125 126 142 141
4 126 127 143 142
4 127 112 128 143
4 128 129 145 144
4 129 130 146 145
4 130 131 147 146
4 131 132 148 147
4 132 133 149 148
4 133 134 150 149
4 134 135 151 150
4 135 136 152 151
4 136 137 153 152
4 137 138 154 153
4 138 139 155 154
4 139 140 156 155
4 140 141 157 156
4 141 142 158 157
4 142 143 159 158
4 143 128 144 159
3 160 1 0
3 160 2 1
3 160 3 2
3 160 4 3
3 160 5 4
3 160 6 5
3 160 7 6
3 160 8 7
3 160 9 8
3 160 10 9
3 160 11 10
3 160 12 11
3 160 13 12
3 160 14 13
3 160 15 14
3 160 0 15
3 161 144 145
3 161 145 146
3 161 146 147
3 161 147 148
3 161 148 149
3 161 149 150
3 161 150 151
3 161 151 152
3 161 152 153
3 161 153 154
3 161 154 155
3 161 155 156
3 161 156 157
3 161 157 158
3 161 158 159
3 161 159 144
4 162 163 175 174
4 163 164 176 175
4 164 165 177 176
4 165 166 178 177
4 166 167 179 178
4 167 168 180 179
4 168 169 181 180
4 169 170 182 181
4 170 171 183 182
4 171 172 184 183
4 172 173 185 184
4 173 162 174 185
4 174 175 187 186
4 175 176 188 187
4 176 177 189 188
4 177 178 190 189
4 178 179 191 190
4 179 180 192 191
4 180 181 193 192
4 181 182 194 193
4 182 183 195 194
4 183 184 196 195
4 184 185 197 196
4 185 174 186 197
4 186 187 199 198
4 187 188 200 199
4 188 189 201 200
4 189 190 202 201
4 190 191 203 202
4 191 192 204 203
4 192 193 205 204
4 193 194 206 205
4 194 195 207 206
4 195 196 208 207
4 196 197 209 208
4 197 186 198 209
3 210 163 162
3 210 164 163
3 210 165 164
3 210 166 165
3 210 167 166
3 210 168 167
3 210 169 168
3 210 170 169
3 210 171 170
3 210 172 171
3 210 173 172
3 210 162 173
3 211 198 199
3 211 199 200
3 211 200 201
3 211 201 202
3 211 202 203
3 211 203 204
3 211 204 205
3 211 205 206
3 211 206 207
3 211 207 208
3 211 208 209
3 211 209 198
4 212 213 214 215
4 216 219 218 217
4 212 215 219 216
4 213 217 218 214
4 215 214 218 219
4 220 223 222 221
4 224 225 226 227
4 220 224 227 223
4 221 222 226 225
4 223 227 226 222
4 228 229 237 236
4 229 230 238 237
4 230 231 239 238
4 231 232 240 239
4 232 233 241 240
4 233 234 242 241
4 234 235 243 242
4 235 228 236 243
3 244 229 228
3 244 230 229
3 244 231 230
3 244 232 231
3 244 233 232
3 244 234 233
3 244 235 234
3 244 228 235
3 245 236 237
3 245 237 238
3 245 238 239
3 245 239 240
3 245 240 241
3 245 241 242
3 245 242 243
3 245 243 236
4 246 247 255 254
4 247 248 256 255
4 248 249 257 256
4 249 250 258 257
4 250 251 259 258
4 251 252 260 259
4 252 253 261 260
4 253 246 254 261
3 262 246 247
3 262 247 248
3 262 248 249
3 262 249 250
3 262 250 251
3 262 251 252
3 262 252 253
3 262 253 246
3 263 255 254
3 263 256 255
3 263 257 256
3 263 258 257
3 263 259 258
3 263 260 259
3 263 261 260
3 263 254 261
4 264 265 277 276
4 265 266 278 277
4 266 267 279 278
4 267 268 280 279
4 268 269 281 280
4 269 270 282 281
4 270 271 283 282
4 271 272 284 283
4 272 273 285 284
4 273 274 286 285
4 274 275 287 286
4 275 264 276 287
4 276 277 289 288
4 277 278 290 289
4 278 279 291 290
4 279 280 292 291
4 280 281 293 292
4 281 282 294 293
4 282 283 295 294
4 283 284 296 295
4 284 285 297 296
4 285 286 298 297
4 286 287 299 298
4 287 276 288 299
3 300 265 264
3 300 266 265
3 300 267 266
3 300 268 267
3 300 269 268
3 300 270 269
3 300 271 270
3 300 272 271
3 300 273 272
3 300 274 273
3 300 275 274
3 300 264 275
3 301 288 289
3 301 289 290
3 301 290 291
3 301 291 292
3 301 292 293
3 301 293 294
3 301 294 295
3 301 295 296
3 301 296 297
3 301 297 298
3 301 298 299
3 301 299 288
4 302 303 315 314
4 303 304 316 315
4 304 305 317 316
4 305 306 318 317
4 306 307 319 318
4 307 308 320 319
4 308 309 321 320
4 309 310 322 321
4 310 311 323 322
4 311 312 324 323
4 312 313 325 324
4 313 302 314 325
4 314 315 327 326
4 315 316 328 327
4 316 317 329 328
4 317 318 330 329
4 318 319 331 330
4 319 320 332 331
4 320 321 333 332
4 321 322 334 333
4 322 323 335 334
4 323 324 336 335
4 324 325 337 336
4 325 314 326 337
3 338 303 302
3 338 304 303
3 338 305 304
3 338 306 305
3 338 307 306
3 338 308 307
3 338 309 308
3 338 310 309
3 338 311 310
3 338 312 311
3 338 313 312
3 338 302 313
3 339 326 327
3 339 327 328
3 339 328 329
3 339 329 330
3 339 330 331
3 339 331 332
3 339 332 333
3 339 333 334
3 339 334 335
3 339 335 336
3 339 336 337
3 339 337 326
4 340 341 342 343
4 344 347 346 345
4 340 343 347 344
4 341 345 346 342
4 343 342 346 347
