ply
format ascii 1.0
element vertex 634
property float32 x
property float32 y
property float32 z
element face 676
property list uint8 int32 vertex_indices
end_header
0.50000 4.50000 0.00000
0.49039 4.50000 0.09755
0.46194 4.50000 0.19134
0.41573 4.50000 0.27779
0.35355 4.50000 0.35355
0.27779 4.50000 0.41573
0.19134 4.50000 0.46194
0.09755 4.50000 0.49039
0.00000 4.50000 0.50000
-0.09755 4.50000 0.49039
-0.19134 4.50000 0.46194
-0.27779 4.50000 0.41573
-0.35355 4.50000 0.35355
-0.41573 4.50000 0.27779
-0.46194 4.50000 0.19134
-0.49039 4.50000 0.09755
-0.50000 4.50000 0.00000
-0.49039 4.50000 -0.09755
-0.46194 4.50000 -0.19134
-0.41573 4.50000 -0.27779
-0.35355 4.50000 -0.35355
-0.27779 4.50000 -0.41573
-0.19134 4.50000 -0.46194
-0.09755 4.50000 -0.49039
-0.00000 4.50000 -0.50000
0.09755 4.50000 -0.49039
0.19134 4.50000 -0.46194
0.27779 4.50000 -0.41573
0.35355 4.50000 -0.35355
0.41573 4.50000 -0.27779
0.46194 4.50000 -0.19134
0.49039 4.50000 -0.09755
2.50000 3.80000 0.00000
2.45196 3.80000 0.48773
2.30970 3.80000 0.95671
2.07867 3.80000 1.38893
1.76777 3.80000 1.76777
1.38893 3.80000 2.07867
0.95671 3.80000 2.30970
0.48773 3.80000 2.45196
0.00000 3.80000 2.50000
-0.48773 3.80000 2.45196
-0.95671 3.80000 2.30970
-1.38893 3.80000 2.07867
-1.76777 3.80000 1.76777
-2.07867 3.80000 1.38893
-2.30970 3.80000 0.95671
-2.45196 3.80000 0.48773
-2.50000 3.80000 0.00000
-2.45196 3.80000 -0.48773
-2.30970 3.80000 -0.95671
-2.07867 3.80000 -1.38893
-1.76777 3.80000 -1.76777
-1.38893 3.80000 -2.07867
-0.95671 3.80000 -2.30970
-0.48773 3.80000 -2.45196
-0.00000 3.80000 -2.50000
0.48773 3.80000 -2.45196
0.95671 3.80000 -2.30970
1.38893 3.80000 -2.07867
1.76777 3.80000 -1.76777
2.07867 3.80000 -1.38893
2.30970 3.80000 -0.95671
2.45196 3.80000 -0.48773
4.50000 2.80000 0.00000
4.41353 2.80000 0.87791
4.15746 2.80000 1.72208
3.74161 2.80000 2.50007
3.18198 2.80000 3.18198
2.50007 2.80000 3.74161
1.72208 2.80000 4.15746
0.87791 2.80000 4.41353
0.00000 2.80000 4.50000
-0.87791 2.80000 4.41353
-1.72208 2.80000 4.15746
-2.50007 2.80000 3.74161
-3.18198 2.80000 3.18198
-3.74161 2.80000 2.50007
-4.15746 2.80000 1.72208
-4.41353 2.80000 0.87791
-4.50000 2.80000 0.00000
-4.41353 2.80000 -0.87791
-4.15746 2.80000 -1.72208
-3.74161 2.80000 -2.50007
-3.18198 2.80000 -3.18198
-2.50007 2.80000 -3.74161
-1.72208 2.80000 -4.15746
-0.87791 2.80000 -4.41353
-0.00000 2.80000 -4.50000
0.87791 2.80000 -4.41353
1.72208 2.80000 -4.15746
2.50007 2.80000 -3.74161
3.18198 2.80000 -3.18198
3.74161 2.80000 -2.50007
4.15746 2.80000 -1.72208
4.41353 2.80000 -0.87791
7.00000 1.20000 0.00000
6.86550 1.20000 1.36563
6.46716 1.20000 2.67878
5.82029 1.20000 3.88899
4.94975 1.20000 4.94975
3.88899 1.20000 5.82029
2.67878 1.20000 6.46716
1.36563 1.20000 6.86550
0.00000 1.20000 7.00000
-1.36563 1.20000 6.86550
-2.67878 1.20000 6.46716
-3.88899 1.20000 5.82029
-4.94975 1.20000 4.94975
-5.82029 1.20000 3.88899
-6.46716 1.20000 2.67878
-6.86550 1.20000 1.36563
-7.00000 1.20000 0.00000
-6.86550 1.20000 -1.36563
-6.46716 1.20000 -2.67878
-5.82029 1.20000 -3.88899
-4.94975 1.20000 -4.94975
-3.88899 1.20000 -5.82029
-2.67878 1.20000 -6.46716
-1.36563 1.20000 -6.86550
-0.00000 1.20000 -7.00000
1.36563 1.20000 -6.86550
2.67878 1.20000 -6.46716
3.88899 1.20000 -5.82029
4.94975 1.20000 -4.94975
5.82029 1.20000 -3.88899
6.46716 1.20000 -2.67878
6.86550 1.20000 -1.36563
9.00000 0.00000 0.00000
8.82707 0.00000 1.75581
8.31492 0.00000 3.44415
7.48323 0.00000 5.00013
6.36396 0.00000 6.36396
5.00013 0.00000 7.48323
3.44415 0.00000 8.31492
1.75581 0.00000 8.82707
0.00000 0.00000 9.00000
-1.75581 0.00000 8.82707
-3.44415 0.00000 8.31492
-5.00013 0.00000 7.48323
-6.36396 0.00000 6.36396
-7.48323 0.00000 5.00013
-8.31492 0.00000 3.44415
-8.82707 0.00000 1.75581
-9.00000 0.00000 0.00000
-8.82707 0.00000 -1.75581
-8.31492 0.00000 -3.44415
-7.48323 0.00000 -5.00013
-6.36396 0.00000 -6.36396
-5.00013 0.00000 -7.48323
-3.44415 0.00000 -8.31492
-1.75581 0.00000 -8.82707
-0.00000 0.00000 -9.00000
1.75581 0.00000 -8.82707
3.44415 0.00000 -8.31492
5.00013 0.00000 -7.48323
6.36396 0.00000 -6.36396
7.48323 0.00000 -5.00013
8.31492 0.00000 -3.44415
8.82707 0.00000 -1.75581
8.00000 -0.80000 0.00000
7.84628 -0.80000 1.56072
7.39104 -0.80000 3.06147
6.65176 -0.80000 4.44456
5.65685 -0.80000 5.65685
4.44456 -0.80000 6.65176
3.06147 -0.80000 7.39104
1.56072 -0.80000 7.84628
0.00000 -0.80000 8.00000
-1.56072 -0.80000 7.84628
-3.06147 -0.80000 7.39104
-4.44456 -0.80000 6.65176
-5.65685 -0.80000 5.65685
-6.65176 -0.80000 4.44456
-7.39104 -0.80000 3.06147
-7.84628 -0.80000 1.56072
-8.00000 -0.80000 0.00000
-7.84628 -0.80000 -1.56072
-7.39104 -0.80000 -3.06147
-6.65176 -0.80000 -4.44456
-5.65685 -0.80000 -5.65685
-4.44456 -0.80000 -6.65176
-3.06147 -0.80000 -7.39104
-1.56072 -0.80000 -7.84628
-0.00000 -0.80000 -8.00000
1.56072 -0.80000 -7.84628
3.06147 -0.80000 -7.39104
4.44456 -0.80000 -6.65176
5.65685 -0.80000 -5.65685
6.65176 -0.80000 -4.44456
7.39104 -0.80000 -3.06147
7.84628 -0.80000 -1.56072
6.50000 -1.60000 0.00000
6.37510 -1.60000 1.26809
6.00522 -1.60000 2.48744
5.40455 -1.60000 3.61121
4.59619 -1.60000 4.59619
3.61121 -1.60000 5.40455
2.48744 -1.60000 6.00522
1.26809 -1.60000 6.37510
0.00000 -1.60000 6.50000
-1.26809 -1.60000 6.37510
-2.48744 -1.60000 6.00522
-3.61121 -1.60000 5.40455
-4.59619 -1.60000 4.59619
-5.40455 -1.60000 3.61121
-6.00522 -1.60000 2.48744
-6.37510 -1.60000 1.26809
-6.50000 -1.60000 0.00000
-6.37510 -1.60000 -1.26809
-6.00522 -1.60000 -2.48744
-5.40455 -1.60000 -3.61121
-4.59619 -1.60000 -4.59619
-3.61121 -1.60000 -5.40455
-2.48744 -1.60000 -6.00522
-1.26809 -1.60000 -6.37510
-0.00000 -1.60000 -6.50000
1.26809 -1.60000 -6.37510
2.48744 -1.60000 -6.00522
3.61121 -1.60000 -5.40455
4.59619 -1.60000 -4.59619
5.40455 -1.60000 -3.61121
6.00522 -1.60000 -2.48744
6.37510 -1.60000 -1.26809
4.00000 -2.40000 0.00000
3.92314 -2.40000 0.78036
3.69552 -2.40000 1.53073
3.32588 -2.40000 2.22228
2.82843 -2.40000 2.82843
2.22228 -2.40000 3.32588
1.53073 -2.40000 3.69552
0.78036 -2.40000 3.92314
0.00000 -2.40000 4.00000
-0.78036 -2.40000 3.92314
-1.53073 -2.40000 3.69552
-2.22228 -2.40000 3.32588
-2.82843 -2.40000 2.82843
-3.32588 -2.40000 2.22228
-3.69552 -2.40000 1.53073
-3.92314 -2.40000 0.78036
-4.00000 -2.40000 0.00000
-3.92314 -2.40000 -0.78036
-3.69552 -2.40000 -1.53073
-3.32588 -2.40000 -2.22228
-2.82843 -2.40000 -2.82843
-2.22228 -2.40000 -3.32588
-1.53073 -2.40000 -3.69552
-0.78036 -2.40000 -3.92314
-0.00000 -2.40000 -4.00000
0.78036 -2.40000 -3.92314
1.53073 -2.40000 -3.69552
2.22228 -2.40000 -3.32588
2.82843 -2.40000 -2.82843
3.32588 -2.40000 -2.22228
3.69552 -2.40000 -1.53073
3.92314 -2.40000 -0.78036
1.50000 -3.00000 0.00000
1.47118 -3.00000 0.29264
1.38582 -3.00000 0.57403
1.24720 -3.00000 0.83336
1.06066 -3.00000 1.06066
0.83336 -3.00000 1.24720
0.57403 -3.00000 1.38582
0.29264 -3.00000 1.47118
0.00000 -3.00000 1.50000
-0.29264 -3.00000 1.47118
-0.57403 -3.00000 1.38582
-0.83336 -3.00000 1.24720
-1.06066 -3.00000 1.06066
-1.24720 -3.00000 0.83336
-1.38582 -3.00000 0.57403
-1.47118 -3.00000 0.29264
-1.50000 -3.00000 0.00000
-1.47118 -3.00000 -0.29264
-1.38582 -3.00000 -0.57403
-1.24720 -3.00000 -0.83336
-1.06066 -3.00000 -1.06066
-0.83336 -3.00000 -1.24720
-0.57403 -3.00000 -1.38582
-0.29264 -3.00000 -1.47118
-0.00000 -3.00000 -1.50000
0.29264 -3.00000 -1.47118
0.57403 -3.00000 -1.38582
0.83336 -3.00000 -1.24720
1.06066 -3.00000 -1.06066
1.24720 -3.00000 -0.83336
1.38582 -3.00000 -0.57403
1.47118 -3.00000 -0.29264
0.00000 5.50000 0.00000
0.00000 -3.60000 0.00000
8.50000 0.30000 0.00000
8.33667 0.30000 1.65827
7.85298 0.30000 3.25281
7.06749 0.30000 4.72235
6.01041 0.30000 6.01041
4.72235 0.30000 7.06749
3.25281 0.30000 7.85298
1.65827 0.30000 8.33667
0.00000 0.30000 8.50000
-1.65827 0.30000 8.33667
-3.25281 0.30000 7.85298
-4.72235 0.30000 7.06749
-6.01041 0.30000 6.01041
-7.06749 0.30000 4.72235
-7.85298 0.30000 3.25281
-8.33667 0.30000 1.65827
-8.50000 0.30000 0.00000
-8.33667 0.30000 -1.65827
-7.85298 0.30000 -3.25281
-7.06749 0.30000 -4.72235
-6.01041 0.30000 -6.01041
-4.72235 0.30000 -7.06749
-3.25281 0.30000 -7.85298
-1.65827 0.30000 -8.33667
-0.00000 0.30000 -8.50000
1.65827 0.30000 -8.33667
3.25281 0.30000 -7.85298
4.72235 0.30000 -7.06749
6.01041 0.30000 -6.01041
7.06749 0.30000 -4.72235
7.85298 0.30000 -3.25281
8.33667 0.30000 -1.65827
9.80000 0.00000 0.00000
9.61170 0.00000 1.91189
9.05402 0.00000 3.75030
8.14840 0.00000 5.44459
6.92965 0.00000 6.92965
5.44459 0.00000 8.14840
3.75030 0.00000 9.05402
1.91189 0.00000 9.61170
0.00000 0.00000 9.80000
-1.91189 0.00000 9.61170
-3.75030 0.00000 9.05402
-5.44459 0.00000 8.14840
-6.92965 0.00000 6.92965
-8.14840 0.00000 5.44459
-9.05402 0.00000 3.75030
-9.61170 0.00000 1.91189
-9.80000 0.00000 0.00000
-9.61170 0.00000 -1.91189
-9.05402 0.00000 -3.75030
-8.14840 0.00000 -5.44459
-6.92965 0.00000 -6.92965
-5.44459 0.00000 -8.14840
-3.75030 0.00000 -9.05402
-1.91189 0.00000 -9.61170
-0.00000 0.00000 -9.80000
1.91189 0.00000 -9.61170
3.75030 0.00000 -9.05402
5.44459 0.00000 -8.14840
6.92965 0.00000 -6.92965
8.14840 0.00000 -5.44459
9.05402 0.00000 -3.75030
9.61170 0.00000 -1.91189
8.50000 -0.30000 0.00000
8.33667 -0.30000 1.65827
7.85298 -0.30000 3.25281
7.06749 -0.30000 4.72235
6.01041 -0.30000 6.01041
4.72235 -0.30000 7.06749
3.25281 -0.30000 7.85298
1.65827 -0.30000 8.33667
0.00000 -0.30000 8.50000
-1.65827 -0.30000 8.33667
-3.25281 -0.30000 7.85298
-4.72235 -0.30000 7.06749
-6.01041 -0.30000 6.01041
-7.06749 -0.30000 4.72235
-7.85298 -0.30000 3.25281
-8.33667 -0.30000 1.65827
-8.50000 -0.30000 0.00000
-8.33667 -0.30000 -1.65827
-7.85298 -0.30000 -3.25281
-7.06749 -0.30000 -4.72235
-6.01041 -0.30000 -6.01041
-4.72235 -0.30000 -7.06749
-3.25281 -0.30000 -7.85298
-1.65827 -0.30000 -8.33667
-0.00000 -0.30000 -8.50000
1.65827 -0.30000 -8.33667
3.25281 -0.30000 -7.85298
4.72235 -0.30000 -7.06749
6.01041 -0.30000 -6.01041
7.06749 -0.30000 -4.72235
7.85298 -0.30000 -3.25281
8.33667 -0.30000 -1.65827
0.30000 5.50000 0.00000
0.27716 5.50000 0.11481
0.21213 5.50000 0.21213
0.11481 5.50000 0.27716
0.00000 5.50000 0.30000
-0.11481 5.50000 0.27716
-0.21213 5.50000 0.21213
-0.27716 5.50000 0.11481
-0.30000 5.50000 0.00000
-0.27716 5.50000 -0.11481
-0.21213 5.50000 -0.21213
-0.11481 5.50000 -0.27716
-0.00000 5.50000 -0.30000
0.11481 5.50000 -0.27716
0.21213 5.50000 -0.21213
0.27716 5.50000 -0.11481
1.00000 5.20000 0.00000
0.92388 5.20000 0.38268
0.70711 5.20000 0.70711
0.38268 5.20000 0.92388
0.00000 5.20000 1.00000
-0.38268 5.20000 0.92388
-0.70711 5.20000 0.70711
-0.92388 5.20000 0.38268
-1.00000 5.20000 0.00000
-0.92388 5.20000 -0.38268
-0.70711 5.20000 -0.70711
-0.38268 5.20000 -0.92388
-0.00000 5.20000 -1.00000
0.38268 5.20000 -0.92388
0.70711 5.20000 -0.70711
0.92388 5.20000 -0.38268
1.60000 4.80000 0.00000
1.47821 4.80000 0.61229
1.13137 4.80000 1.13137
0.61229 4.80000 1.47821
0.00000 4.80000 1.60000
-0.61229 4.80000 1.47821
-1.13137 4.80000 1.13137
-1.47821 4.80000 0.61229
-1.60000 4.80000 0.00000
-1.47821 4.80000 -0.61229
-1.13137 4.80000 -1.13137
-0.61229 4.80000 -1.47821
-0.00000 4.80000 -1.60000
0.61229 4.80000 -1.47821
1.13137 4.80000 -1.13137
1.47821 4.80000 -0.61229
1.80000 4.30000 0.00000
1.66298 4.30000 0.68883
1.27279 4.30000 1.27279
0.68883 4.30000 1.66298
0.00000 4.30000 1.80000
-0.68883 4.30000 1.66298
-1.27279 4.30000 1.27279
-1.66298 4.30000 0.68883
-1.80000 4.30000 0.00000
-1.66298 4.30000 -0.68883
-1.27279 4.30000 -1.27279
-0.68883 4.30000 -1.66298
-0.00000 4.30000 -1.80000
0.68883 4.30000 -1.66298
1.27279 4.30000 -1.27279
1.66298 4.30000 -0.68883
1.50000 3.90000 0.00000
1.38582 3.90000 0.57403
1.06066 3.90000 1.06066
0.57403 3.90000 1.38582
0.00000 3.90000 1.50000
-0.57403 3.90000 1.38582
-1.06066 3.90000 1.06066
-1.38582 3.90000 0.57403
-1.50000 3.90000 0.00000
-1.38582 3.90000 -0.57403
-1.06066 3.90000 -1.06066
-0.57403 3.90000 -1.38582
-0.00000 3.90000 -1.50000
0.57403 3.90000 -1.38582
1.06066 3.90000 -1.06066
1.38582 3.90000 -0.57403
0.60000 3.60000 0.00000
0.55433 3.60000 0.22961
0.42426 3.60000 0.42426
0.22961 3.60000 0.55433
0.00000 3.60000 0.60000
-0.22961 3.60000 0.55433
-0.42426 3.60000 0.42426
-0.55433 3.60000 0.22961
-0.60000 3.60000 0.00000
-0.55433 3.60000 -0.22961
-0.42426 3.60000 -0.42426
-0.22961 3.60000 -0.55433
-0.00000 3.60000 -0.60000
0.22961 3.60000 -0.55433
0.42426 3.60000 -0.42426
0.55433 3.60000 -0.22961
0.00000 6.20000 0.00000
0.00000 3.40000 0.00000
0.50000 -2.80000 3.50000
0.43301 -2.80000 3.75000
0.25000 -2.80000 3.93301
0.00000 -2.80000 4.00000
-0.25000 -2.80000 3.93301
-0.43301 -2.80000 3.75000
-0.50000 -2.80000 3.50000
-0.43301 -2.80000 3.25000
-0.25000 -2.80000 3.06699
0.00000 -2.80000 3.00000
0.25000 -2.80000 3.06699
0.43301 -2.80000 3.25000
0.60000 -3.20000 3.50000
0.51962 -3.20000 3.80000
0.30000 -3.20000 4.01962
0.00000 -3.20000 4.10000
-0.30000 -3.20000 4.01962
-0.51962 -3.20000 3.80000
-0.60000 -3.20000 3.50000
-0.51962 -3.20000 3.20000
-0.30000 -3.20000 2.98038
0.00000 -3.20000 2.90000
0.30000 -3.20000 2.98038
0.51962 -3.20000 3.20000
0.50000 -3.70000 3.50000
0.43301 -3.70000 3.75000
0.25000 -3.70000 3.93301
0.00000 -3.70000 4.00000
-0.25000 -3.70000 3.93301
-0.43301 -3.70000 3.75000
-0.50000 -3.70000 3.50000
-0.43301 -3.70000 3.25000
-0.25000 -3.70000 3.06699
0.00000 -3.70000 3.00000
0.25000 -3.70000 3.06699
0.43301 -3.70000 3.25000
0.20000 -4.10000 3.50000
0.17321 -4.10000 3.60000
0.10000 -4.10000 3.67321
0.00000 -4.10000 3.70000
-0.10000 -4.10000 3.67321
-0.17321 -4.10000 3.60000
-0.20000 -4.10000 3.50000
-0.17321 -4.10000 3.40000
-0.10000 -4.10000 3.32679
0.00000 -4.10000 3.30000
0.10000 -4.10000 3.32679
0.17321 -4.10000 3.40000
0.00000 -2.50000 3.50000
0.00000 -4.30000 3.50000
-2.53109 -2.80000 -1.75000
-2.59808 -2.80000 -1.50000
-2.78109 -2.80000 -1.31699
-3.03109 -2.80000 -1.25000
-3.28109 -2.80000 -1.31699
-3.46410 -2.80000 -1.50000
-3.53109 -2.80000 -1.75000
-3.46410 -2.80000 -2.00000
-3.28109 -2.80000 -2.18301
-3.03109 -2.80000 -2.25000
-2.78109 -2.80000 -2.18301
-2.59808 -2.80000 -2.00000
-2.43109 -3.20000 -1.75000
-2.51147 -3.20000 -1.45000
-2.73109 -3.20000 -1.23038
-3.03109 -3.20000 -1.15000
-3.33109 -3.20000 -1.23038
-3.55070 -3.20000 -1.45000
-3.63109 -3.20000 -1.75000
-3.55070 -3.20000 -2.05000
-3.33109 -3.20000 -2.26962
-3.03109 -3.20000 -2.35000
-2.73109 -3.20000 -2.26962
-2.51147 -3.20000 -2.05000
-2.53109 -3.70000 -1.75000
-2.59808 -3.70000 -1.50000
-2.78109 -3.70000 -1.31699
-3.03109 -3.70000 -1.25000
-3.28109 -3.70000 -1.31699
-3.46410 -3.70000 -1.50000
-3.53109 -3.70000 -1.75000
-3.46410 -3.70000 -2.00000
-3.28109 -3.70000 -2.18301
-3.03109 -3.70000 -2.25000
-2.78109 -3.70000 -2.18301
-2.59808 -3.70000 -2.00000
-2.83109 -4.10000 -1.75000
-2.85788 -4.10000 -1.65000
-2.93109 -4.10000 -1.57679
-3.03109 -4.10000 -1.55000
-3.13109 -4.10000 -1.57679
-3.20429 -4.10000 -1.65000
-3.23109 -4.10000 -1.75000
-3.20429 -4.10000 -1.85000
-3.13109 -4.10000 -1.92321
-3.03109 -4.10000 -1.95000
-2.93109 -4.10000 -1.92321
-2.85788 -4.10000 -1.85000
-3.03109 -2.50000 -1.75000
-3.03109 -4.30000 -1.75000
3.53109 -2.80000 -1.75000
3.46410 -2.80000 -1.50000
3.28109 -2.80000 -1.31699
3.03109 -2.80000 -1.25000
2.78109 -2.80000 -1.31699
2.59808 -2.80000 -1.50000
2.53109 -2.80000 -1.75000
2.59808 -2.80000 -2.00000
2.78109 -2.80000 -2.18301
3.03109 -2.80000 -2.25000
3.28109 -2.80000 -2.18301
3.46410 -2.80000 -2.00000
3.63109 -3.20000 -1.75000
3.55070 -3.20000 -1.45000
3.33109 -3.20000 -1.23038
3.03109 -3.20000 -1.15000
2.73109 -3.20000 -1.23038
2.51147 -3.20000 -1.45000
2.43109 -3.20000 -1.75000
2.51147 -3.20000 -2.05000
2.73109 -3.20000 -2.26962
3.03109 -3.20000 -2.35000
3.33109 -3.20000 -2.26962
3.55070 -3.20000 -2.05000
3.53109 -3.70000 -1.75000
3.46410 -3.70000 -1.50000
3.28109 -3.70000 -1.31699
3.03109 -3.70000 -1.25000
2.78109 -3.70000 -1.31699
2.59808 -3.70000 -1.50000
2.53109 -3.70000 -1.75000
2.59808 -3.70000 -2.00000
2.78109 -3.70000 -2.18301
3.03109 -3.70000 -2.25000
3.28109 -3.70000 -2.18301
3.46410 -3.70000 -2.00000
3.23109 -4.10000 -1.75000
3.20429 -4.10000 -1.65000
3.13109 -4.10000 -1.57679
3.03109 -4.10000 -1.55000
2.93109 -4.10000 -1.57679
2.85788 -4.10000 -1.65000
2.83109 -4.10000 -1.75000
2.85788 -4.10000 -1.85000
2.93109 -4.10000 -1.92321
3.03109 -4.10000 -1.95000
3.13109 -4.10000 -1.92321
3.20429 -4.10000 -1.85000
3.03109 -2.50000 -1.75000
3.03109 -4.30000 -1.75000
4 0 1 33 32
4 1 2 34 33
4 2 3 35 34
4 3 4 36 35
4 4 5 37 36
4 5 6 38 37
4 6 7 39 38
4 7 8 40 39
4 8 9 41 40
4 9 10 42 41
4 10 11 43 42
4 11 12 44 43
4 12 13 45 44
4 13 14 46 45
4 14 15 47 46
4 15 16 48 47
4 16 17 49 48
4 17 18 50 49
4 18 19 51 50
4 19 20 52 51
4 20 21 53 52
4 21 22 54 53
4 22 23 55 54
4 23 24 56 55
4 24 25 57 56
4 25 26 58 57
4 26 27 59 58
4 27 28 60 59
4 28 29 61 60
4 29 30 62 61
4 30 31 63 62
4 31 0 32 63
4 32 33 65 64
4 33 34 66 65
4 34 35 67 66
4 35 36 68 67
4 36 37 69 68
4 37 38 70 69
4 38 39 71 70
4 39 40 72 71
4 40 41 73 72
4 41 42 74 73
4 42 43 75 74
4 43 44 76 75
4 44 45 77 76
4 45 46 78 77
4 46 47 79 78
4 47 48 80 79
4 48 49 81 80
4 49 50 82 81
4 50 51 83 82
4 51 52 84 83
4 52 53 85 84
4 53 54 86 85
4 54 55 87 86
4 55 56 88 87
4 56 57 89 88
4 57 58 90 89
4 58 59 91 90
4 59 60 92 91
4 60 61 93 92
4 61 62 94 93
4 62 63 95 94
4 63 32 64 95
4 64 65 97 96
4 65 66 98 97
4 66 67 99 98
4 67 68 100 99
4 68 69 101 100
4 69 70 102 101
4 70 71 103 102
4 71 72 104 103
4 72 73 105 104
4 73 74 106 105
4 74 75 107 106
4 75 76 108 107
4 76 77 109 108
4 77 78 110 109
4 78 79 111 110
4 79 80 112 111
4 80 81 113 112
4 81 82 114 113
4 82 83 115 114
4 83 84 116 115
4 84 85 117 116
4 85 86 118 117
4 86 87 119 118
4 87 88 120 119
4 88 89 121 120
4 89 90 122 121
4 90 91 123 122
4 91 92 124 123
4 92 93 125 124
4 93 94 126 125
4 94 95 127 126
4 95 64 96 127
4 96 97 129 128
4 97 98 130 129
4 98 99 131 130
4 99 100 132 131
4 100 101 133 132
4 101 102 134 133
4 102 103 135 134
4 103 104 136 135
4 104 105 137 136
4 105 106 138 137
4 106 107 139 138
4 107 108 140 139
4 108 109 141 140
4 109 110 142 141
4 110 111 143 142
4 111 112 144 143
4 112 113 145 144
4 113 114 146 145
4 114 115 147 146
4 115 116 148 147
4 116 117 149 148
4 117 118 150 149
4 118 119 151 150
4 119 120 152 151
4 120 121 153 152
4 121 122 154 153
4 122 123 155 154
4 123 124 156 155
4 124 125 157 156
4 125 126 158 157
4 126 127 159 158
4 127 96 128 159
4 128 129 161 160
4 129 130 162 161
4 130 131 163 162
4 131 132 164 163
4 132 133 165 164
4 133 134 166 165
4 134 135 167 166
4 135 136 168 167
4 136 137 169 168
4 137 138 170 169
4 138 139 171 170
4 139 140 172 171
4 140 141 173 172
4 141 142 174 173
4 142 143 175 174
4 143 144 176 175
4 144 145 177 176
4 145 146 178 177
4 146 147 179 178
4 147 148 180 179
4 148 149 181 180
4 149 150 182 181
4 150 151 183 182
4 151 152 184 183
4 152 153 185 184
4 153 154 186 185
4 154 155 187 186
4 155 156 188 187
4 156 157 189 188
4 157 158 190 189
4 158 159 191 190
4 159 128 160 191
4 160 161 193 192
4 161 162 194 193
4 162 163 195 194
4 163 164 196 195
4 164 165 197 196
4 165 166 198 197
4 166 167 199 198
4 167 168 200 199
4 168 169 201 200
4 169 170 202 201
4 170 171 203 202
4 171 172 204 203
4 172 173 205 204
4 173 174 206 205
4 174 175 207 206
4 175 176 208 207
4 176 177 209 208
4 177 178 210 209
4 178 179 211 210
4 179 180 212 211
4 180 181 213 212
4 181 182 214 213
4 182 183 215 214
4 183 184 216 215
4 184 185 217 216
4 185 186 218 217
4 186 187 219 218
4 187 188 220 219
4 188 189 221 220
4 189 190 222 221
4 190 191 223 222
4 191 160 192 223
4 192 193 225 224
4 193 194 226 225
4 194 195 227 226
4 195 196 228 227
4 196 197 229 228
4 197 198 230 229
4 198 199 231 230
4 199 200 232 231
4 200 201 233 232
4 201 202 234 233
4 202 203 235 234
4 203 204 236 235
4 204 205 237 236
4 205 206 238 237
4 206 207 239 238
4 207 208 240 239
4 208 209 241 240
4 209 210 242 241
4 210 211 243 242
4 211 212 244 243
4 212 213 245 244
4 213 214 246 245
4 214 215 247 246
4 215 216 248 247
4 216 217 249 248
4 217 218 250 249
4 218 219 251 250
4 219 220 252 251
4 220 221 253 252
4 221 222 254 253
4 222 223 255 254
4 223 192 224 255
4 224 225 257 256
4 225 226 258 257
4 226 227 259 258
4 227 228 260 259
4 228 229 261 260
4 229 230 262 261
4 230 231 263 262
4 231 232 264 263
4 232 233 265 264
4 233 234 266 265
4 234 235 267 266
4 235 236 268 267
4 236 237 269 268
4 237 238 270 269
4 238 239 271 270
4 239 240 272 271
4 240 241 273 272
4 241 242 274 273
4 242 243 275 274
4 243 244 276 275
4 244 245 277 276
4 245 246 278 277
4 246 247 279 278
4 247 248 280 279
4 248 249 281 280
4 249 250 282 281
4 250 251 283 282
4 251 252 284 283
4 252 253 285 284
4 253 254 286 285
4 254 255 287 286
4 255 224 256 287
3 288 1 0
3 288 2 1
3 288 3 2
3 288 4 3
3 288 5 4
3 288 6 5
3 288 7 6
3 288 8 7
3 288 9 8
3 288 10 9
3 288 11 10
3 288 12 11
3 288 13 12
3 288 14 13
3 288 15 14
3 288 16 15
3 288 17 16
3 288 18 17
3 288 19 18
3 288 20 19
3 288 21 20
3 288 22 21
3 288 23 22
3 288 24 23
3 288 25 24
3 288 26 25
3 288 27 26
3 288 28 27
3 288 29 28
3 288 30 29
3 288 31 30
3 288 0 31
3 289 256 257
3 289 257 258
3 289 258 259
3 289 259 260
3 289 260 261
3 289 261 262
3 289 262 263
3 289 263 264
3 289 264 265
3 289 265 266
3 289 266 267
3 289 267 268
3 289 268 269
3 289 269 270
3 289 270 271
3 289 271 272
3 289 272 273
3 289 273 274
3 289 274 275
3 289 275 276
3 289 276 277
3 289 277 278
3 289 278 279
3 289 279 280
3 289 280 281
3 289 281 282
3 289 282 283
3 289 283 284
3 289 284 285
3 289 285 286
3 289 286 287
3 289 287 256
4 290 291 323 322
4 291 292 324 323
4 292 293 325 324
4 293 294 326 325
4 294 295 327 326
4 295 296 328 327
4 296 297 329 328
4 297 298 330 329
4 298 299 331 330
4 299 300 332 331
4 300 301 333 332
4 301 302 334 333
4 302 303 335 334
4 303 304 336 335
4 304 305 337 336
4 305 306 338 337
4 306 307 339 338
4 307 308 340 339
4 308 309 341 340
4 309 310 342 341
4 310 311 343 342
4 311 312 344 343
4 312 313 345 344
4 313 314 346 345
4 314 315 347 346
4 315 316 348 347
4 316 317 349 348
4 317 318 350 349
4 318 319 351 350
4 319 320 352 351
4 320 321 353 352
4 321 290 322 353
4 322 323 355 354
4 323 324 356 355
4 324 325 357 356
4 325 326 358 357
4 326 327 359 358
4 327 328 360 359
4 328 329 361 360
4 329 330 362 361
4 330 331 363 362
4 331 332 364 363
4 332 333 365 364
4 333 334 366 365
4 334 335 367 366
4 335 336 368 367
4 336 337 369 368
4 337 338 370 369
4 338 339 371 370
4 339 340 372 371
4 340 341 373 372
4 341 342 374 373
4 342 343 375 374
4 343 344 376 375
4 344 345 377 376
4 345 346 378 377
4 346 347 379 378
4 347 348 380 379
4 348 349 381 380
4 349 350 382 381
4 350 351 383 382
4 351 352 384 383
4 352 353 385 384
4 353 322 354 385
4 386 387 403 402
4 387 388 404 403
4 388 389 405 404
4 389 390 406 405
4 390 391 407 406
4 391 392 408 407
4 392 393 409 408
4 393 394 410 409
4 394 395 411 410
4 395 396 412 411
4 396 397 413 412
4 397 398 414 413
4 398 399 415 414
4 399 400 416 415
4 400 401 417 416
4 401 386 402 417
4 402 403 419 418
4 403 404 420 419
4 404 405 421 420
4 405 406 422 421
4 406 407 423 422
4 407 408 424 423
4 408 409 425 424
4 409 410 426 425
4 410 411 427 426
4 411 412 428 427
4 412 413 429 428
4 413 414 430 429
4 414 415 431 430
4 415 416 432 431
4 416 417 433 432
4 417 402 418 433
4 418 419 435 434
4 419 420 436 435
4 420 421 437 436
4 421 422 438 437
4 422 423 439 438
4 423 424 440 439
4 424 425 441 440
4 425 426 442 441
4 426 427 443 442
4 427 428 444 443
4 428 429 445 444
4 429 430 446 445
4 430 431 447 446
4 431 432 448 447
4 432 433 449 448
4 433 418 434 449
4 434 435 451 450
4 435 436 452 451
4 436 437 453 452
4 437 438 454 453
4 438 439 455 454
4 439 440 456 455
4 440 441 457 456
4 441 442 458 457
4 442 443 459 458
4 443 444 460 459
4 444 445 461 460
4 445 446 462 461
4 446 447 463 462
4 447 448 464 463
4 448 449 465 464
4 449 434 450 465
4 450 451 467 466
4 451 452 468 467
4 452 453 469 468
4 453 454 470 469
4 454 455 471 470
4 455 456 472 471
4 456 457 473 472
4 457 458 474 473
4 458 459 475 474
4 459 460 476 475
4 460 461 477 476
4 461 462 478 477
4 462 463 479 478
4 463 464 480 479
4 464 465 481 480
4 465 450 466 481
3 482 387 386
3 482 388 387
3 482 389 388
3 482 390 389
3 482 391 390
3 482 392 391
3 482 393 392
3 482 394 393
3 482 395 394
3 482 396 395
3 482 397 396
3 482 398 397
3 482 399 398
3 482 400 399
3 482 401 400
3 482 386 401
3 483 466 467
3 483 467 468
3 483 468 469
3 483 469 470
3 483 470 471
3 483 471 472
3 483 472 473
3 483 473 474
3 483 474 475
3 483 475 476
3 483 476 477
3 483 477 478
3 483 478 479
3 483 479 480
3 483 480 481
3 483 481 466
4 484 485 497 496
4 485 486 498 497
4 486 487 499 498
4 487 488 500 499
4 488 489 501 500
4 489 490 502 501
4 490 491 503 502
4 491 492 504 503
4 492 493 505 504
4 493 494 506 505
4 494 495 507 506
4 495 484 496 507
4 496 497 509 508
4 497 498 510 509
4 498 499 511 510
4 499 500 512 511
4 500 501 513 512
4 501 502 514 513
4 502 503 515 514
4 503 504 516 515
4 504 505 517 516
4 505 506 518 517
4 506 507 519 518
4 507 496 508 519
4 508 509 521 520
4 509 510 522 521
4 510 511 523 522
4 511 512 524 523
4 512 513 525 524
4 513 514 526 525
4 514 515 527 526
4 515 516 528 527
4 516 517 529 528
4 517 518 530 529
4 518 519 531 530
4 519 508 520 531
3 532 485 484
3 532 486 485
3 532 487 486
3 532 488 487
3 532 489 488
3 532 490 489
3 532 491 490
3 532 492 491
3 532 493 492
3 532 494 493
3 532 495 494
3 532 484 495
3 533 520 521
3 533 521 522
3 533 522 523
3 533 523 524
3 533 524 525
3 533 525 526
3 533 526 527
3 533 527 528
3 533 528 529
3 533 529 530
3 533 530 531
3 533 531 520
4 534 535 547 546
4 535 536 548 547
4 536 537 549 548
4 537 538 550 549
4 538 539 551 550
4 539 540 552 551
4 540 541 553 552
4 541 542 554 553
4 542 543 555 554
4 543 544 556 555
4 544 545 557 556
4 545 534 546 557
4 546 547 559 558
4 547 548 560 559
4 548 549 561 560
4 549 550 562 561
4 550 551 563 562
4 551 552 564 563
4 552 553 565 564
4 553 554 566 565
4 554 555 567 566
4 555 556 568 567
4 556 557 569 568
4 557 546 558 569
4 558 559 571 570
4 559 560 572 571
4 560 561 573 572
4 561 562 574 573
4 562 563 575 574
4 563 564 576 575
4 564 565 577 576
4 565 566 578 577
4 566 567 579 578
4 567 568 580 579
4 568 569 581 580
4 569 558 570 581
3 582 535 534
3 582 536 535
3 582 537 536
3 582 538 537
3 582 539 538
3 582 540 539
3 582 541 540
3 582 542 541
3 582 543 542
3 582 544 543
3 582 545 544
3 582 534 545
3 583 570 571
3 583 571 572
3 583 572 573
3 583 573 574
3 583 574 575
3 583 575 576
3 583 576 577
3 583 577 578
3 583 578 579
3 583 579 580
3 583 580 581
3 583 581 570
4 584 585 597 596
4 585 586 598 597
4 586 587 599 598
4 587 588 600 599
4 588 589 601 600
4 589 590 602 601
4 590 591 603 602
4 591 592 604 603
4 592 593 605 604
4 593 594 606 605
4 594 595 607 606
4 595 584 596 607
4 596 597 609 608
4 597 598 610 609
4 598 599 611 610
4 599 600 612 611
4 600 601 613 612
4 601 602 614 613
4 602 603 615 614
4 603 604 616 615
4 604 605 617 616
4 605 606 618 617
4 606 607 619 618
4 607 596 608 619
4 608 609 621 620
4 609 610 622 621
4 610 611 623 622
4 611 612 624 623
4 612 613 625 624
4 613 614 626 625
4 614 615 627 626
4 615 616 628 627
4 616 617 629 628
4 617 618 630 629
4 618 619 631 630
4 619 608 620 631
3 632 585 584
3 632 586 585
3 632 587 586
3 632 588 587
3 632 589 588
3 632 590 589
3 632 591 590
3 632 592 591
3 632 593 592
3 632 594 593
3 632 595 594
3 632 584 595
3 633 620 621
3 633 621 622
3 633 622 623
3 633 623 624
3 633 624 625
3 633 625 626
3 633 626 627
3 633 627 628
3 633 628 629
3 633 629 630
3 633 630 631
3 633 631 620
